<svg width="17" height="18" viewBox="0 0 17 18" fill="none" xmlns="http://www.w3.org/2000/svg">
<path d="M0.000176259 13.5152C0.00548524 13.6074 0.0437098 13.6954 0.108934 13.7646L3.80561 17.8578C3.88828 17.9482 4.00857 18 4.13522 18C4.26172 18 4.38216 17.9482 4.46468 17.8578L8.16151 13.7646C8.25328 13.6851 8.3044 13.5722 8.30167 13.4548C8.29909 13.3373 8.24297 13.2267 8.14771 13.1509C8.0523 13.0749 7.92701 13.0414 7.80354 13.0584C7.68007 13.0755 7.5704 13.1417 7.5023 13.2401L4.57343 16.4892L4.57343 2.45091C4.57676 2.23463 4.36835 2.0352 4.13856 2.0352C3.90876 2.0352 3.70035 2.23463 3.70369 2.45091L3.70369 16.4892L0.767983 13.2401C0.648911 13.1068 0.453238 13.0588 0.280187 13.1208C0.107268 13.1827 -0.00513584 13.341 0.000176259 13.5152ZM8.69833 4.53572C8.71441 4.70061 8.83454 4.84023 9.00276 4.8892C9.17082 4.93816 9.35376 4.88705 9.46617 4.75957L12.4019 1.51051L12.4019 15.5875C12.4125 15.8018 12.6294 15.9876 12.8571 15.9777C13.0849 15.9675 13.2824 15.7635 13.2717 15.5491L13.2717 1.51084L16.2005 4.7599C16.2686 4.85826 16.3783 4.9245 16.5018 4.94163C16.6252 4.95862 16.7505 4.92507 16.8459 4.84913C16.9412 4.77332 16.9973 4.66268 16.9999 4.54519C17.0026 4.42784 16.9515 4.31492 16.8597 4.2354L13.1629 0.142188C13.0804 0.0518202 12.9599 -5.66497e-07 12.8334 -5.60968e-07C12.7068 -5.55432e-07 12.5865 0.051824 12.5038 0.142188L8.80716 4.2354C8.72935 4.31777 8.69021 4.42613 8.6984 4.53605L8.69833 4.53572Z" fill="white"/>
</svg>
