<svg width="19" height="19" viewBox="0 0 19 19" fill="none" xmlns="http://www.w3.org/2000/svg">
<path d="M7.07829 0.366211V2.19954H12.5783V0.366211H14.4116V2.19954H18.0783C18.3214 2.19954 18.5546 2.29612 18.7265 2.46803C18.8984 2.63994 18.995 2.8731 18.995 3.11621V17.7829C18.995 18.026 18.8984 18.2592 18.7265 18.4311C18.5546 18.603 18.3214 18.6995 18.0783 18.6995H1.57829C1.33517 18.6995 1.10201 18.603 0.930107 18.4311C0.758198 18.2592 0.661621 18.026 0.661621 17.7829V3.11621C0.661621 2.8731 0.758198 2.63994 0.930107 2.46803C1.10201 2.29612 1.33517 2.19954 1.57829 2.19954H5.24495V0.366211H7.07829ZM17.1616 8.61621H2.49495V16.8662H17.1616V8.61621ZM12.6113 9.65754L13.9075 10.9537L9.36996 15.4912L6.12862 12.2499L7.42662 10.9537L9.37087 12.8989L12.6122 9.65754H12.6113ZM5.24495 4.03288H2.49495V6.78288H17.1616V4.03288H14.4116V4.94954H12.5783V4.03288H7.07829V4.94954H5.24495V4.03288Z" fill="black"/>
</svg>
