<svg width="59" height="36" viewBox="0 0 59 36" fill="none" xmlns="http://www.w3.org/2000/svg">
<path d="M9 19.4575V31.9193C9 33.2335 10.068 34.3097 11.3821 34.3097H40.9145C42.2286 34.3097 43.2966 33.2336 43.2966 31.9193L43.297 19.4575H9ZM16.2127 29.9888H13.198C12.7463 29.9888 12.3767 29.6192 12.3767 29.1676C12.3767 28.7073 12.7463 28.3463 13.198 28.3463H16.2127C16.6644 28.3463 17.034 28.7077 17.034 29.1676C17.0344 29.6193 16.6648 29.9888 16.2127 29.9888Z" fill="white"/>
<path d="M46.6195 1.47678H17.0872C15.773 1.47678 14.7051 2.54474 14.7051 3.85891V9.5515H41.4847C43.7045 9.5515 45.5103 11.3573 45.5103 13.5771V18.7523L45.3814 23.8862H46.6191C47.9333 23.8862 49.0012 22.81 49.0012 21.4958V3.85869C49.0012 2.54407 47.9333 1.47656 46.6187 1.47656L46.6195 1.47678Z" fill="white"/>
<path d="M43.2978 14.2825V17.8147H9.00171V14.2825C9.00171 12.9683 10.0697 11.9004 11.3838 11.9004H40.9162C42.2308 11.9004 43.2987 12.9683 43.2987 14.2825H43.2978Z" fill="white"/>
</svg>
