<svg width="59" height="36" viewBox="0 0 59 36" fill="none" xmlns="http://www.w3.org/2000/svg">
<path d="M37.8201 21.4678C37.8201 18.3549 40.3521 15.8223 43.4653 15.8223H49.2628V14.4229C49.2628 11.9757 47.3662 9.97586 44.9616 9.80369C44.8509 9.79567 44.7398 9.78677 44.6271 9.78677L15.6909 9.78647C14.7693 9.66864 14.0561 8.88297 14.0561 7.92993C14.0561 6.89468 14.8951 6.05561 15.9301 6.05561H43.3785C42.7318 4.27475 41.0302 3 39.0244 3H15.6364C13.0762 3 11 5.07613 11 7.63641V29.9812C11 32.5432 13.0761 34.6176 15.6364 34.6176H44.6265C47.188 34.6176 49.263 32.5438 49.263 29.9812V27.1128H43.4655C40.3526 27.1128 37.8202 24.5799 37.8202 21.4679L37.8201 21.4678Z" fill="white"/>
<path d="M49.5279 17.0952H43.4654C41.0503 17.0952 39.0938 19.0521 39.0938 21.4677C39.0938 23.8828 41.0506 25.8394 43.4654 25.8394H49.5279V25.8364C50.3405 25.8364 50.9997 25.1769 50.9997 24.3636V18.5674C50.9997 17.7544 50.3405 17.0952 49.5279 17.0952ZM43.5526 23.0785C42.6604 23.0785 41.9374 22.3561 41.9374 21.4636C41.9374 20.5714 42.6604 19.8474 43.5526 19.8474C44.4454 19.8474 45.1681 20.5713 45.1681 21.4636C45.1681 22.3561 44.4451 23.0785 43.5526 23.0785Z" fill="white"/>
</svg>
