<svg width="51" height="36" viewBox="0 0 51 36" fill="none" xmlns="http://www.w3.org/2000/svg">
<path d="M42.5697 17.9357C42.5697 9.92968 37.0271 3.00143 29.175 1.30786C38.2588 7.46631 40.7221 19.938 34.5637 29.0209C33.178 31.1763 31.3305 33.0239 29.175 34.4095C37.0271 32.8699 42.5697 25.9416 42.5697 17.9357Z" fill="white"/>
<path d="M34.8714 17.9357C34.8714 8.5441 27.3274 1 17.9357 1C8.5441 1 1 8.5441 1 17.9357C1 27.3274 8.5441 34.8714 17.9357 34.8714C27.3274 34.8714 34.8714 27.3274 34.8714 17.9357ZM24.0942 13.3169H21.0149V11.7773C21.0149 10.8535 20.3991 10.2377 19.4753 10.2377H16.3961C15.4723 10.2377 14.8565 10.8535 14.8565 11.7773V14.8565C14.8565 15.7803 15.4723 16.3961 16.3961 16.3961H19.4753C22.0927 16.3961 24.0942 18.3976 24.0942 21.0149V24.0942C24.0942 26.7115 22.0927 28.713 19.4753 28.713V31.7922H16.3961V28.713C13.7788 28.713 11.7773 26.7115 11.7773 24.0942V22.5546H14.8565V24.0942C14.8565 25.0179 15.4723 25.6338 16.3961 25.6338H19.4753C20.3991 25.6338 21.0149 25.0179 21.0149 24.0942V21.0149C21.0149 20.0912 20.3991 19.4753 19.4753 19.4753H16.3961C13.7788 19.4753 11.7773 17.4738 11.7773 14.8565V11.7773C11.7773 9.15994 13.7788 7.15845 16.3961 7.15845V4.07922H19.4753V7.15845C22.0927 7.15845 24.0942 9.15994 24.0942 11.7773V13.3169Z" fill="white"/>
<path d="M50.2679 17.9357C50.2679 9.92968 44.7253 3.00143 36.8733 1.30786C45.957 7.46631 48.4204 19.938 42.2619 29.0209C40.8763 31.1763 39.0287 33.0239 36.8733 34.4095C44.7253 32.8699 50.2679 25.9416 50.2679 17.9357Z" fill="white"/>
</svg>
