<svg width="20" height="20" viewBox="0 0 20 20" fill="none" xmlns="http://www.w3.org/2000/svg">
<path d="M9.23879 1.64801L9.23877 1.64792C10.3073 1.37506 11.4166 1.67845 12.2507 2.48879C12.5266 2.76743 12.7612 3.06774 12.8536 3.25379L12.8595 3.26569L12.8596 3.26561C12.9256 3.39072 12.9931 3.51084 13.0511 3.604C13.079 3.64873 13.1118 3.69869 13.1457 3.74244C13.1613 3.76254 13.1891 3.79706 13.226 3.83172C13.2441 3.84868 13.2776 3.87839 13.3244 3.90691C13.3614 3.92947 13.4672 3.98947 13.6169 3.98947C13.6829 3.98947 13.7413 3.97651 13.748 3.97504L13.7486 3.97491C13.7692 3.97061 13.7899 3.96553 13.808 3.9609C13.845 3.9514 13.8895 3.93891 13.9368 3.92501C14.0322 3.89699 14.1528 3.85921 14.2763 3.81804M9.23879 1.64801L9.10268 1.11502C10.3668 0.792194 11.6725 1.15788 12.6378 2.09804C12.9296 2.39218 13.2144 2.7437 13.3462 3.00916C13.471 3.24592 13.5891 3.43947 13.6169 3.43947C13.6446 3.43947 13.8668 3.37483 14.1031 3.29603C14.6448 3.11664 15.5757 3.10212 16.1659 3.26008M9.23879 1.64801L9.22902 1.65032C8.83578 1.74313 8.37865 1.97387 7.97485 2.28808L7.97488 2.28811L7.9698 2.29197C7.84033 2.39032 7.64666 2.59216 7.45732 2.83412C7.26625 3.07829 7.12711 3.30262 7.07572 3.4271L7.07578 3.42713L7.07252 3.4347C7.04924 3.48878 7.02034 3.55228 6.98526 3.61217C6.95133 3.67009 6.89304 3.75758 6.79794 3.83238C6.54708 4.02969 6.27764 3.9717 6.16514 3.93929L6.16514 3.9393L6.16237 3.93849C5.47952 3.7379 5.2577 3.70259 4.84512 3.70259C3.92652 3.70259 3.22511 4.00173 2.5229 4.72072L2.52284 4.72078C1.22671 6.04747 1.22166 8.12564 2.53206 9.48566L9.23879 1.64801ZM14.2763 3.81804C14.2766 3.81795 14.2768 3.81786 14.2771 3.81777L14.1031 3.2961L14.276 3.81815C14.2761 3.81811 14.2762 3.81808 14.2763 3.81804ZM14.2763 3.81804C14.4756 3.75212 14.7832 3.70724 15.1256 3.70147C15.4656 3.69574 15.7916 3.72937 16.023 3.79118M16.023 3.79118C16.0228 3.79114 16.0227 3.7911 16.0225 3.79106L16.1659 3.26008M16.023 3.79118C17.4402 4.17414 18.4678 5.55579 18.4498 7.1281L18.4498 7.1293C18.4375 8.44544 17.7414 9.58288 16.6298 10.1608M16.023 3.79118C16.0232 3.79125 16.0235 3.79132 16.0237 3.79139L16.1659 3.26008M16.1659 3.26008C17.84 3.71219 19.0205 5.32634 18.9997 7.13441M16.8813 10.65C18.1803 9.97561 18.9857 8.64833 18.9997 7.13441M16.8813 10.65L16.3744 10.9081L18.9997 7.13441M16.8813 10.65L16.6279 10.1618C16.6285 10.1615 16.6291 10.1612 16.6298 10.1608M16.8813 10.65L16.6317 10.1599L16.6298 10.1608M18.9997 7.13441L16.6298 10.1608M16.6298 10.1608L16.1248 10.4181L15.8301 10.5682L15.8245 10.8989L15.7897 12.9578L15.7896 12.9639H15.7896L15.758 18.4159M16.6298 10.1608L15.758 18.4159M15.758 18.4159L16.3029 18.414L16.3048 18.964L15.7548 18.9608L15.758 18.4159ZM15.758 18.4159L10.0042 18.4355L10.0054 18.9855L15.758 18.4159Z" stroke="#898989" stroke-width="1.1"/>
<path d="M4 16H16" stroke="#898989"/>
</svg>
