<?xml version="1.0" encoding="UTF-8"?>
<svg version="1.1" xmlns="http://www.w3.org/2000/svg" width="1665" height="1977">
<path d="M0 0 C3.0104617 1.43199233 6.02971979 2.84428771 9.04980469 4.25585938 C32.39492861 15.23340003 54.6196484 27.78272815 76.54541016 41.32983398 C79.64340742 43.39187395 79.64340742 43.39187395 82.45108032 44.25054932 C85.72058358 45.5933674 87.55140171 46.67084268 89.87011719 49.36523438 C91.32558396 55.89158946 91.03565044 62.32955894 90.84667969 68.98242188 C90.83196684 70.7038246 90.82177119 72.42527205 90.81616211 74.14672852 C90.76384706 80.51191512 90.62423177 86.87614239 90.49511719 93.24023438 C90.28886719 107.47148437 90.08261719 121.70273438 89.87011719 136.36523438 C41.69011719 136.36523438 -6.48988281 136.36523438 -56.12988281 136.36523438 C-56.12988281 207.97523438 -56.12988281 279.58523438 -56.12988281 353.36523438 C-60.40044365 351.65701004 -62.32734067 350.57928801 -65.65332031 347.72070312 C-71.33972201 343.06045852 -77.40763991 339.36541255 -83.75488281 335.67773438 C-84.94764271 334.97949888 -86.14035004 334.28117359 -87.33300781 333.58276367 C-170.64198259 284.9788781 -256.79979725 257.96095501 -395.12988281 279.36523438 C-443.16600126 292.12128642 -490.12412684 313.08200237 -529.33154297 343.95214844 C-531.15300403 345.38340239 -532.98910172 346.79385608 -534.82910156 348.20117188 C-541.29151537 353.1717269 -547.46896567 358.31807691 -553.43457031 363.88085938 C-555.54655694 365.8275601 -557.68451249 367.71086369 -559.86035156 369.58398438 C-564.62124726 373.73663036 -569.10371429 378.14709144 -573.56738281 382.61523438 C-574.40849609 383.45715332 -575.24960937 384.29907227 -576.11621094 385.16650391 C-581.08207691 390.18164209 -585.77915382 395.21852959 -590.11425781 400.79101562 C-592.00429516 403.2048424 -593.98068535 405.52058789 -595.99487305 407.83105469 C-645.92909085 465.3966786 -674.75060386 543.00072952 -681.12988281 618.36523438 C-681.24074219 619.63367188 -681.35160156 620.90210938 -681.46582031 622.20898438 C-688.43667176 717.91689068 -658.20951172 813.83910697 -589.72924805 899.13330078 C-578.00250904 912.59131659 -565.81563721 925.86819438 -552.12988281 937.36523438 C-551.20175781 938.17089844 -550.27363281 938.9765625 -549.31738281 939.80664062 C-536.52511168 950.86881773 -522.89949596 960.7822026 -508.86230469 970.20019531 C-507.39771564 971.18511906 -505.9424061 972.18382039 -504.48925781 973.18554688 C-462.1044724 1001.48764552 -409.1064205 1019.68013344 -359.06738281 1027.55273438 C-358.08850098 1027.70766357 -357.10961914 1027.86259277 -356.10107422 1028.0222168 C-337.62279599 1030.77880256 -319.29781083 1031.74263136 -300.62988281 1031.67773438 C-299.53593201 1031.67591156 -298.4419812 1031.67408875 -297.31488037 1031.67221069 C-280.06543046 1031.6239629 -263.20338395 1030.99607302 -246.12988281 1028.36523438 C-244.98583984 1028.19362793 -243.84179688 1028.02202148 -242.66308594 1027.84521484 C-158.82665277 1014.93754166 -85.21805507 975.08254923 -25.37988281 915.80273438 C-24.50436768 914.94035156 -23.62885254 914.07796875 -22.72680664 913.18945312 C-17.52052207 907.98956992 -12.72974392 902.60821828 -8.13134766 896.86401367 C-6.49412401 894.81998049 -4.82684712 892.82271185 -3.11035156 890.84570312 C54.09826488 823.97888437 78.08296222 738.53402377 82.87011719 652.36523438 C192.43011719 652.36523438 301.99011719 652.36523438 414.87011719 652.36523438 C413.69569157 688.77242839 413.69569157 688.77242839 412.62011719 700.99023438 C412.55731567 701.71750732 412.49451416 702.44478027 412.42980957 703.1940918 C404.67443078 792.14586444 379.38641655 877.4659591 324.28515625 986.9140625 C323.01257813 989.11845938 321.77169525 991.33558314 320.54980469 993.56835938 C297.24593812 1036.14242438 266.94692818 1076.17643297 234.13964844 1111.87695312 C232.15635166 1114.05141103 230.22382035 1116.25686655 228.30761719 1118.49023438 C225.06780294 1122.22554962 221.58015678 1125.67157434 218.06152344 1129.14257812 C216.05541529 1131.17729388 214.16898203 1133.26108874 212.30761719 1135.42773438 C206.964702 1141.63241007 201.14120057 1147.18714121 194.93652344 1152.51757812 C192.65862241 1154.55434029 190.51593131 1156.68997512 188.37011719 1158.86523438 C184.36261008 1162.91356498 180.20347656 1166.67169988 175.87011719 1170.36523438 C174.37738281 1171.656875 174.37738281 1171.656875 172.85449219 1172.97460938 C158.08514328 1185.74203016 143.02160106 1197.99984848 127.29736328 1209.57763672 C125.74569848 1210.72039368 124.19631148 1211.86625419 122.64990234 1213.01611328 C95.47145769 1233.22126388 66.46094316 1251.03905949 36.57080078 1266.92675781 C33.88914597 1268.355099 31.21747548 1269.80096303 28.54589844 1271.24804688 C-43.54155349 1309.94871776 -123.54575639 1334.31062521 -247.0491333 1351.18096924 C-249.02165489 1351.35565002 -250.99351817 1351.53771851 -252.96533203 1351.72021484 C-297.03906013 1355.64319051 -342.1233403 1354.63193281 -386.12988281 1350.36523438 C-386.88088257 1350.2926239 -387.63188232 1350.22001343 -388.40563965 1350.14520264 C-472.34130297 1341.90213972 -553.27905169 1317.97059527 -662.12988281 1266.36523438 C-663.06832031 1265.85412109 -664.00675781 1265.34300781 -664.97363281 1264.81640625 C-685.98279168 1253.35071195 -706.40259562 1240.92343974 -726.12988281 1227.36523438 C-726.88688477 1226.84638672 -727.64388672 1226.32753906 -728.42382812 1225.79296875 C-743.78593913 1215.2349424 -758.6695012 1204.12961264 -773.12988281 1192.36523438 C-773.97292969 1191.68460938 -774.81597656 1191.00398438 -775.68457031 1190.30273438 C-786.92616683 1181.17911981 -797.85574758 1171.74164232 -808.46264648 1161.88891602 C-809.696525 1160.76127862 -810.94356955 1159.6480102 -812.19750977 1158.54272461 C-819.36431129 1152.20442096 -826.1376434 1145.51023469 -832.88989258 1138.7355957 C-834.82097828 1136.79912889 -836.75738163 1134.86809481 -838.69433594 1132.9375 C-844.20602486 1127.4287774 -849.69026945 1121.94329679 -854.73950195 1116.00073242 C-856.91449732 1113.44229626 -859.21618307 1111.00982193 -861.50488281 1108.55273438 C-865.72262368 1103.98225532 -869.73940921 1099.29584567 -873.63769531 1094.44726562 C-875.50857365 1092.13359319 -877.3972016 1089.84336859 -879.30957031 1087.56445312 C-888.03234022 1077.14377243 -896.20528521 1066.40323197 -904.12988281 1055.36523438 C-904.66387695 1054.62208984 -905.19787109 1053.87894531 -905.74804688 1053.11328125 C-912.75238288 1043.33757019 -919.57603157 1033.4488377 -926.12988281 1023.36523438 C-926.59362305 1022.65173828 -927.05736328 1021.93824219 -927.53515625 1021.203125 C-935.5291094 1008.84640651 -942.95582702 996.21299694 -950.12988281 983.36523438 C-950.64566895 982.44339355 -951.16145508 981.52155273 -951.69287109 980.57177734 C-953.2188194 977.8391546 -954.73854464 975.10320002 -956.25488281 972.36523438 C-956.71644775 971.53451416 -957.1780127 970.70379395 -957.65356445 969.84790039 C-959.72869506 966.07468701 -961.5630767 962.38059895 -963.12988281 958.36523438 C-964.21724149 956.35604669 -965.32417425 954.35741751 -966.44238281 952.36523438 C-1005.36333269 880.57790753 -1026.99341424 796.03209974 -1038.390625 646.88842773 C-1038.37989431 642.93197286 -1038.39061356 638.97597271 -1038.40332031 635.01953125 C-1038.41836918 609.86307369 -1037.02230462 584.8401694 -1033.94238281 559.86523438 C-1033.83728394 558.99846069 -1033.73218506 558.13168701 -1033.62390137 557.23864746 C-1023.50490794 474.48386941 -998.21637741 395.93455862 -942.77783203 289.10546875 C-941.17216859 286.4355478 -939.58757264 283.75424429 -938.00878906 281.06835938 C-925.36444404 259.63398073 -911.22619349 239.14382323 -896.12988281 219.36523438 C-895.37578125 218.36621094 -894.62167969 217.3671875 -893.84472656 216.33789062 C-879.25341988 197.14379777 -863.54308531 178.85767472 -846.98632812 161.33935547 C-845.05126773 159.28163606 -843.13239022 157.20971021 -841.21582031 155.13476562 C-833.14384905 146.42416102 -824.82398281 138.14058965 -816.05371094 130.13623047 C-814.02482147 128.26851928 -812.02037174 126.37725755 -810.02050781 124.47851562 C-803.48234315 118.27349115 -796.93733638 112.20654785 -789.87988281 106.58789062 C-787.28370828 104.48956206 -784.76373867 102.32777966 -782.2487793 100.1340332 C-774.5386396 93.41909844 -766.53785436 87.15750389 -758.35400391 81.03173828 C-756.15474224 79.38386121 -753.96459823 77.7243667 -751.77441406 76.06445312 C-717.76954023 50.47622238 -681.08344624 28.53993344 -643.12988281 9.36523438 C-642.00710938 8.79579102 -640.88433594 8.22634766 -639.72753906 7.63964844 C-565.13139604 -29.96481468 -484.06824661 -53.00662336 -337.59277344 -68.13745117 C-335.49824976 -68.19745565 -333.40392541 -68.26252398 -331.30957031 -68.328125 C-248.92532047 -70.8240144 -166.41898346 -58.95943918 0 0 Z " fill="#F96A04" transform="translate(1144.1298828125,68.634765625)"/>
<path d="M0 0 C102.96 0 205.92 0 312 0 C310.97850543 5.10747284 309.36685892 9.25518376 307.3125 14 C306.92022217 14.90790283 306.52794434 15.81580566 306.1237793 16.7512207 C283.70460092 67.97367688 255.12409885 116.43842201 220 160 C219.24203125 160.94101562 218.4840625 161.88203125 217.703125 162.8515625 C215.48468326 165.5813472 213.24813279 168.29461986 211 171 C210.57750977 171.50885742 210.15501953 172.01771484 209.71972656 172.54199219 C203.52428379 179.98647966 197.1427507 187.21249283 190.54956055 194.30688477 C189.38348641 195.58098656 188.23094964 196.86749822 187.08520508 198.15991211 C181.43000538 204.53116954 175.54021255 210.61468163 169.5065918 216.6237793 C167.93225845 218.1927236 166.36338411 219.76698558 164.79492188 221.34179688 C159.8978371 226.24210997 154.96067268 231.04786235 149.69213867 235.55297852 C147.30006389 237.59854586 144.99920388 239.73946018 142.6875 241.875 C138.25368689 245.91402153 133.71945416 249.77506878 129.05078125 253.5390625 C126.82711326 255.33280236 124.61801522 257.13872383 122.41796875 258.9609375 C106.99990592 271.69436051 90.86766565 283.20804904 74.25 294.3125 C73.55697784 294.776633 72.86395569 295.24076599 72.14993286 295.71896362 C62.59786571 302.10515271 52.90654156 308.17958408 43 314 C41.65953613 314.79216919 41.65953613 314.79216919 40.29199219 315.6003418 C-30.30434524 357.09255679 -108.4114655 383.8415874 -290 402 C-291.46566406 401.97317139 -291.46566406 401.97317139 -292.9609375 401.94580078 C-362.87289413 400.48217944 -432.34693335 388.22797684 -498 364 C-494.34428536 362.78142845 -493.06260851 363.35070102 -489.41015625 364.44140625 C-488.2512085 364.7751123 -487.09226074 365.10881836 -485.89819336 365.45263672 C-484.63241455 365.8188916 -483.36663574 366.18514648 -482.0625 366.5625 C-470.28965602 369.86629629 -458.50097914 372.389846 -446.4375 374.375 C-445.71901886 374.49569855 -445.00053772 374.61639709 -444.26028442 374.74075317 C-424.03513144 378.10857376 -403.99435296 379.38374635 -383.5 379.3125 C-382.40604919 379.31067719 -381.31209839 379.30885437 -380.18499756 379.30697632 C-362.93554765 379.25872853 -346.07350114 378.63083865 -329 376 C-327.85595703 375.82839355 -326.71191406 375.65678711 -325.53320312 375.47998047 C-241.69676996 362.57230728 -168.08817226 322.71731485 -108.25 263.4375 C-106.93672729 262.14392578 -106.93672729 262.14392578 -105.59692383 260.82421875 C-100.39063925 255.62433555 -95.59986111 250.24298391 -91.00146484 244.4987793 C-89.36424119 242.45474611 -87.69696431 240.45747747 -85.98046875 238.48046875 C-28.77185231 171.61364999 -4.78715497 86.1687894 0 0 Z " fill="#FC4D03" transform="translate(1227,721)"/>
<path d="M0 0 C0.49725586 0.43699219 0.99451172 0.87398437 1.50683594 1.32421875 C7.76552491 6.85137265 13.75886099 12.47769368 19 19 C19.74507813 19.9075 20.49015625 20.815 21.2578125 21.75 C44.39888876 50.76702353 58.16153189 85.31804975 63 122 C63.14356934 123.06299316 63.14356934 123.06299316 63.29003906 124.14746094 C64.26876825 132.44385713 64.24362656 140.78281022 64.25 149.125 C64.25067474 149.9206839 64.25134949 150.7163678 64.25204468 151.53616333 C64.18710427 199.9580409 49.44016924 247.25987544 17 284 C16.55720703 284.50837402 16.11441406 285.01674805 15.65820312 285.54052734 C-16.37474311 322.15431671 -62.68189418 343.19108337 -110.90844727 346.82568359 C-165.32234108 349.89379701 -216.58038694 335.35180202 -257.68261719 298.92504883 C-291.54516019 268.26527392 -312.45761784 225.17881217 -318 180 C-318.0920874 179.32106689 -318.1841748 178.64213379 -318.27905273 177.94262695 C-324.81295423 123.52867102 -311.900977 69.35049368 -279.1875 25.375 C-247.16379731 -15.16133252 -202.03357651 -38.73641582 -151 -45 C-149.95972656 -45.13277344 -148.91945312 -45.26554687 -147.84765625 -45.40234375 C-94.96017941 -50.94149125 -40.04105234 -35.32322442 0 0 Z M-209.60546875 59.27734375 C-223.24861222 74.79002075 -232.54115136 93.84286543 -237 114 C-237.16081055 114.70753418 -237.32162109 115.41506836 -237.48730469 116.14404297 C-242.22185553 138.09381114 -242.28745825 164.15377008 -237 186 C-236.82839355 186.71462402 -236.65678711 187.42924805 -236.47998047 188.16552734 C-229.12553215 217.64247169 -212.88228059 243.89530937 -186.5625 259.93359375 C-159.40803716 275.93742539 -126.00951619 279.22958624 -95.66748047 271.39794922 C-80.41413517 267.12624459 -66.97772879 260.45912389 -55 250 C-54.34 249.48308594 -53.68 248.96617187 -53 248.43359375 C-29.65250889 229.65204344 -19.12867182 198.46746796 -15.4140625 169.80859375 C-11.65790653 133.29526359 -17.87322406 94.41695767 -41 65 C-58.36438416 43.79179705 -82.72787399 29.38883972 -110.25830078 26.22705078 C-147.93842502 23.10661307 -182.86369118 31.32592196 -209.60546875 59.27734375 Z " fill="#000000" transform="translate(319,1630)"/>
<path d="M0 0 C25.08 0 50.16 0 76 0 C76 132.66 76 265.32 76 402 C50.92 402 25.84 402 0 402 C-0.33 382.86 -0.66 363.72 -1 344 C-3.64 348.95 -6.28 353.9 -9 359 C-10.82175884 361.65159056 -12.52255722 364.06290359 -14.5625 366.5 C-15.03518311 367.07911133 -15.50786621 367.65822266 -15.99487305 368.25488281 C-17.31216142 369.85140477 -18.65499776 371.42675495 -20 373 C-20.58265625 373.68578125 -21.1653125 374.3715625 -21.765625 375.078125 C-41.05742663 395.9288601 -70.07572161 405.16319035 -97.68359375 406.28515625 C-135.29486566 407.17184111 -168.63664623 395.41173626 -196.0625 369.25 C-226.45309956 337.74301106 -237.61702462 292.20005407 -237.23193359 249.49658203 C-236.19473018 205.39972168 -224.64660725 162.32115778 -192.609375 130.53173828 C-167.16457671 106.31440448 -133.2879255 96.13485109 -98.703125 96.8125 C-67.94850038 97.82499793 -39.87547472 109.00397261 -18.34375 131.3046875 C-11.22541672 139.49077077 -6.20485107 148.45777304 -1 158 C-0.67 105.86 -0.34 53.72 0 0 Z M-139 190 C-156.86018558 210.75825343 -159.40246739 238.78579568 -158 265 C-156.83087134 276.15002338 -154.13731758 286.99801577 -149 297 C-148.49726562 297.99128906 -147.99453125 298.98257813 -147.4765625 300.00390625 C-138.4362397 316.62027421 -124.22041817 328.3871784 -106.21875 334.2265625 C-99.5756903 336.13777344 -92.92114242 337.71974247 -86 338 C-85.1028125 338.03996094 -84.205625 338.07992187 -83.28125 338.12109375 C-60.33510736 338.63436273 -40.85300006 331.59927187 -24 316 C-6.91825522 298.61457975 -0.25076616 275.6330592 0.02734375 251.64111328 C-0.26404068 226.86823342 -7.20770991 203.85280809 -25 186 C-26.01320313 184.95199219 -26.01320313 184.95199219 -27.046875 183.8828125 C-42.94727568 168.5203953 -64.07750928 164.5406388 -85.4296875 164.78515625 C-106.52445866 165.357495 -124.54107238 175.09051089 -139 190 Z " fill="#000000" transform="translate(661,1571)"/>
<path d="M0 0 C0.98613281 0.81082031 1.97226563 1.62164063 2.98828125 2.45703125 C14.47985214 12.26780004 21.2000934 23.40018679 28 37 C28.33 18.19 28.66 -0.62 29 -20 C54.41 -20 79.82 -20 106 -20 C106 79.33 106 178.66 106 281 C80.59 281 55.18 281 29 281 C28.67 262.19 28.34 243.38 28 224 C25.36 228.95 22.72 233.9 20 239 C17.38382698 242.47521491 14.83132914 245.73593496 12 249 C11.236875 250.010625 10.47375 251.02125 9.6875 252.0625 C-9.61552083 273.16115068 -37.41619217 283.73384357 -65.51586914 285.12451172 C-84.91363544 285.72607974 -103.77250345 283.9162709 -122 277 C-122.65806641 276.75266113 -123.31613281 276.50532227 -123.99414062 276.25048828 C-155.61391278 264.08374987 -179.3064736 239.06044668 -192.99853516 208.38476562 C-201.79576761 187.43611458 -207.012709 164.86307638 -207.23828125 142.1015625 C-207.2480751 141.2771315 -207.25786896 140.4527005 -207.26795959 139.60328674 C-207.51701142 113.16985254 -206.04446185 88.1156916 -197 63 C-196.73316406 62.25572754 -196.46632813 61.51145508 -196.19140625 60.74462891 C-192.28784167 50.10554769 -187.26506541 40.43425974 -181 31 C-180.33613281 29.99710938 -179.67226562 28.99421875 -178.98828125 27.9609375 C-168.92031464 13.73154469 -156.13284294 1.64285718 -141 -7 C-140.37689941 -7.36029297 -139.75379883 -7.72058594 -139.11181641 -8.09179688 C-97.41267878 -31.73662959 -37.79792286 -31.09814333 0 0 Z M-108 67 C-125.45071868 87.54944443 -130.63063003 113.70086433 -129 140 C-127.04633668 161.55884612 -120.55602013 180.39106824 -105 196 C-103.98679687 197.04800781 -103.98679687 197.04800781 -102.953125 198.1171875 C-88.20304458 212.36820505 -67.74028281 217.42392821 -47.69140625 217.21484375 C-24.82541662 215.88401896 -6.57621329 207.02875374 9.34375 190.578125 C26.40050891 171.30165089 29.95393621 145.82330697 29 121 C27.64341968 102.24043219 21.1308203 84.42958306 9 70 C8.36320312 69.17113281 7.72640625 68.34226562 7.0703125 67.48828125 C-4.25601677 53.87531569 -22.62457723 45.8250712 -40 44 C-65.672069 42.61678881 -89.562722 47.78176916 -108 67 Z " fill="#F88303" transform="translate(1559,1692)"/>
<path d="M0 0 C9.79363726 9.18070814 17.68311272 19.3946328 24.25 31.125 C24.58773438 31.72795898 24.92546875 32.33091797 25.2734375 32.95214844 C33.76778759 48.35214968 38.68304876 64.76934458 41.25 82.125 C41.44722656 83.44371094 41.44722656 83.44371094 41.6484375 84.7890625 C43.22523243 98.21312743 45.49442999 119.63614002 39.25 132.125 C-33.35 132.125 -105.95 132.125 -180.75 132.125 C-177.69110133 153.86496627 -177.69110133 153.86496627 -169.75 174.125 C-169.30914063 174.97320313 -168.86828125 175.82140625 -168.4140625 176.6953125 C-160.54956694 190.90354481 -147.08333547 200.27447789 -131.75 205.125 C-110.58001403 210.39308342 -88.67086604 209.02425041 -69.4765625 197.93359375 C-54.85078397 188.23196702 -48.8487027 176.69578376 -43.75 160.125 C-16.69 160.125 10.37 160.125 38.25 160.125 C37.46189493 167.21794561 36.47213248 172.55647488 34.25 179.125 C33.94239746 180.03564209 33.63479492 180.94628418 33.31787109 181.88452148 C26.87760026 200.24297626 16.546279 215.01084796 3.25 229.125 C2.58871094 229.86234375 1.92742187 230.5996875 1.24609375 231.359375 C-18.1809072 252.15032099 -48.11495124 264.62479711 -75.75 269.125 C-76.9771875 269.32867188 -78.204375 269.53234375 -79.46875 269.7421875 C-121.22444349 275.95892884 -165.57481392 267.76622978 -200 242.75 C-224.58476301 223.5285796 -241.19388185 198.68193564 -250.0625 168.75 C-250.29300049 167.98582764 -250.52350098 167.22165527 -250.76098633 166.43432617 C-255.26558849 150.20419329 -256.30382444 133.63189057 -256.1875 116.875 C-256.18445862 115.93888885 -256.18141724 115.00277771 -256.17828369 114.03829956 C-256.10827664 99.42471633 -255.32689269 85.35529223 -251.75 71.125 C-251.44449219 69.85172852 -251.44449219 69.85172852 -251.1328125 68.55273438 C-244.73769547 42.59724394 -231.64299533 19.91317982 -212.75 1.125 C-211.94046875 0.31546875 -211.1309375 -0.4940625 -210.296875 -1.328125 C-155.27767364 -53.43240178 -54.84102214 -49.86427399 0 0 Z M-162.75 47.125 C-174.89474183 61.59224226 -178.91628172 78.78781719 -180.75 97.125 C-132.9 97.125 -85.05 97.125 -35.75 97.125 C-35.75 76.42495617 -38.37957758 58.54640472 -53.34765625 43.296875 C-68.67076833 29.44378505 -87.3860948 22.65892893 -107.96875 22.9765625 C-129.11063224 24.10492138 -148.05867603 31.60307114 -162.75 47.125 Z " fill="#000000" transform="translate(1046.75,1705.875)"/>
<path d="M0 0 C65.01 0 130.02 0 197 0 C197 68.64 197 137.28 197 208 C131.99 208 66.98 208 0 208 C0 139.36 0 70.72 0 0 Z " fill="#FFC203" transform="translate(1295,47)"/>
<path d="M0 0 C63.36 0 126.72 0 192 0 C192 68.64 192 137.28 192 208 C128.64 208 65.28 208 0 208 C0 139.36 0 70.72 0 0 Z " fill="#FE5802" transform="translate(1362,424)"/>
<path d="M0 0 C62.7 0 125.4 0 190 0 C190 62.7 190 125.4 190 190 C127.3 190 64.6 190 0 190 C0 127.3 0 64.6 0 0 Z " fill="#FE5B02" transform="translate(1061,486)"/>
<path d="M0 0 C0 27.06 0 54.12 0 82 C-19.3125 82.75 -19.3125 82.75 -25.2746582 82.95605469 C-47.06854827 83.83898623 -69.63279592 87.36429108 -86 103 C-86.62003906 103.56847656 -87.24007813 104.13695312 -87.87890625 104.72265625 C-105.21048358 122.36441841 -106.10728029 148.95111579 -106.20532227 172.06176758 C-106.21492931 173.52179727 -106.22494091 174.98182435 -106.23532104 176.44184875 C-106.26207057 180.36242455 -106.28323987 184.28301202 -106.30332303 188.20362687 C-106.32537012 192.31689911 -106.35266614 196.43013663 -106.37937927 200.54338074 C-106.4290555 208.31319192 -106.47408603 216.08302263 -106.51740164 223.8528716 C-106.57628235 234.36584261 -106.64243258 244.87876781 -106.70815182 255.39169788 C-106.81133373 271.9277676 -106.9048834 288.46387737 -107 305 C-132.41 305 -157.82 305 -184 305 C-184 205.67 -184 106.34 -184 4 C-158.59 4 -133.18 4 -107 4 C-106.67 21.82 -106.34 39.64 -106 58 C-101.05 51.07 -101.05 51.07 -96 44 C-71.79940175 14.23569637 -37.87595571 0 0 0 Z " fill="#000000" transform="translate(1326,1668)"/>
<path d="M0 0 C54.12 0 108.24 0 164 0 C164 50.49 164 100.98 164 153 C109.88 153 55.76 153 0 153 C0 102.51 0 52.02 0 0 Z " fill="#FC7B05" transform="translate(1139,292)"/>
</svg>
