<svg version="1.2" xmlns="http://www.w3.org/2000/svg" viewBox="0 0 718 692" width="25" height="25">
<path d="M0 0 C24.57715442 -0.51336093 49.91591637 3.61460214 72.9921875 12.125 C75.06548863 14.19830113 74.41546636 18.50125064 74.54858398 21.35644531 C74.59076522 22.24078876 74.63294645 23.12513222 74.67640591 24.03627396 C75.19173868 36.15019942 75.1197989 48.27165083 75.09358144 60.39401531 C75.08722269 63.84391255 75.08673441 67.29381119 75.08555603 70.74371338 C75.0824789 77.24188561 75.07431563 83.74004051 75.06420654 90.23820519 C75.05293132 97.65085927 75.04750655 105.06351428 75.04251111 112.47617483 C75.0321289 127.69245945 75.01460151 142.90872797 74.9921875 158.125 C71.81535304 154.99049294 68.96984362 151.89109358 66.3046875 148.3125 C53.19572388 131.83475243 32.67256055 122.81564784 12.125 120.40234375 C-7.78278162 118.63993415 -28.81744788 123.961135 -44.66992188 136.43261719 C-48.30417194 139.48286888 -51.67400093 142.75132222 -55.0078125 146.125 C-55.67425781 146.78113281 -56.34070313 147.43726563 -57.02734375 148.11328125 C-71.33289213 163.19384806 -77.61764238 185.03869545 -77.2578125 205.4140625 C-76.50181374 216.63591913 -73.97928156 226.98376966 -69.0078125 237.125 C-68.56566406 238.04796875 -68.12351563 238.9709375 -67.66796875 239.921875 C-64.0075727 247.10071268 -59.33905283 253.10737424 -54.0078125 259.125 C-53.43160156 259.785 -52.85539063 260.445 -52.26171875 261.125 C-38.42445886 275.99092909 -17.28661268 282.77201075 2.38671875 284.3125 C24.40982064 284.96624699 44.51142346 276.15579814 60.6796875 261.7265625 C71.01542654 251.9363208 77.78964711 241.33155864 82.1171875 227.79296875 C82.9921875 225.125 82.9921875 225.125 83.9921875 224.125 C85.54839146 224.02911876 87.10895204 224.00311967 88.66810608 224.00474548 C89.67917923 224.00337082 90.69025238 224.00199615 91.73196411 224.00057983 C93.40970413 224.00597275 93.40970413 224.00597275 95.12133789 224.01147461 C96.29191238 224.01132858 97.46248688 224.01118256 98.66853333 224.0110321 C101.88739693 224.01161105 105.10621754 224.01664009 108.32507253 224.02360606 C111.6856615 224.02984043 115.04625123 224.03044346 118.40684509 224.03163147 C124.77461092 224.03474454 131.14235966 224.0429576 137.51011795 224.05298096 C144.75788479 224.06414285 152.00565243 224.06965274 159.25342572 224.07467639 C174.16635585 224.08514023 189.07926997 224.1027392 203.9921875 224.125 C204.02855871 228.52165574 203.89208738 232.46420607 202.92578125 236.7578125 C202.69141357 237.80050293 202.4570459 238.84319336 202.21557617 239.91748047 C201.82656128 241.56707764 201.82656128 241.56707764 201.4296875 243.25 C201.15938721 244.40000488 200.88908691 245.55000977 200.6105957 246.73486328 C191.81277452 283.16031132 175.65239486 314.60600657 149.50585938 341.56005859 C147.96033294 343.1579335 146.43745385 344.77556774 144.9140625 346.39453125 C111.03897648 381.88371807 60.59998711 401.81950471 11.9765625 403.34375 C-34.9801019 404.28437409 -80.68227644 391.14493368 -118.0078125 362.125 C-118.56549316 361.69429199 -119.12317383 361.26358398 -119.69775391 360.81982422 C-134.48545425 349.2415793 -148.26374357 335.54122567 -159.0078125 320.125 C-159.40871094 319.56312988 -159.80960938 319.00125977 -160.22265625 318.42236328 C-183.2158814 286.10828634 -195.52969845 247.6645507 -197.0078125 208.125 C-197.0490625 207.2071875 -197.0903125 206.289375 -197.1328125 205.34375 C-198.11414269 162.65588671 -184.83882074 119.77895846 -160.0078125 85.125 C-159.59321777 84.54363281 -159.17862305 83.96226562 -158.75146484 83.36328125 C-152.48565819 74.68105371 -145.39781773 66.85187156 -138.0078125 59.125 C-137.05261719 58.10792969 -137.05261719 58.10792969 -136.078125 57.0703125 C-100.88666318 20.53180908 -49.76878755 2.06831325 0 0 Z " fill="#F69D2F" transform="translate(197.0078125,63.875)"/>
<path d="M0 0 C15.37917688 -0.07059964 30.75834136 -0.12323439 46.13764286 -0.15543652 C53.2811893 -0.17079696 60.42463411 -0.19167457 67.56811523 -0.22631836 C73.80640332 -0.25655737 80.04461769 -0.27565321 86.28297704 -0.28226548 C89.57525601 -0.28612052 92.8672795 -0.29660804 96.15950203 -0.31719017 C140.68418848 -0.58412041 184.18113262 8.6459476 221 35 C222.56041016 36.10794922 222.56041016 36.10794922 224.15234375 37.23828125 C229.96794475 41.48447668 235.41451115 46.00623641 240.703125 50.890625 C242.75935351 52.77899812 244.86286408 54.57980583 247 56.375 C260.77221496 68.46700473 271.99683901 84.13198232 281 100 C281.57548584 100.99362549 281.57548584 100.99362549 282.16259766 102.00732422 C298.57394335 130.58244972 306.50921182 162.23902075 308 195 C308.06380859 196.38638672 308.06380859 196.38638672 308.12890625 197.80078125 C309.14067879 244.4097697 293.2480968 293.97280125 262 329 C260.80503906 330.33998047 260.80503906 330.33998047 259.5859375 331.70703125 C258.07981507 333.38240848 256.56652529 335.05139868 255.04296875 336.7109375 C253.63348135 338.29021019 252.27754239 339.91835477 250.96875 341.58203125 C249.19511498 343.76036473 247.45112515 345.50565318 245.3125 347.3125 C243.19759054 349.11094491 241.1021189 350.90410786 239.078125 352.8046875 C227.24440606 363.85866527 213.34171 372.59040694 199 380 C198.33564941 380.34514648 197.67129883 380.69029297 196.98681641 381.04589844 C181.84866971 388.80251438 165.95650457 394.09547238 149.375 397.8125 C148.09085205 398.10483521 148.09085205 398.10483521 146.78076172 398.40307617 C128.094781 402.33541621 109.23673306 402.30211745 90.23319626 402.26842356 C87.22124893 402.26460907 84.20932548 402.26797953 81.19737887 402.27132332 C72.27211524 402.28116836 63.34693702 402.27205439 54.42168427 402.25754547 C49.36960453 402.24948344 44.31752666 402.2458305 39.26544189 402.24261475 C-3.57554837 402.2117444 -46.40903576 401.98793625 -89.24333954 401.18766785 C-92.62322932 401.12503281 -96.00316415 401.06555342 -99.38311768 401.00646973 C-104.6064373 400.91358085 -109.82939506 400.80924586 -115.05227661 400.69437027 C-116.93384807 400.65389717 -118.81548364 400.61628467 -120.69717407 400.58178329 C-123.22763389 400.53411547 -125.75749579 400.47426636 -128.28759766 400.41064453 C-129.01973795 400.39913486 -129.75187824 400.3876252 -130.50620461 400.37576675 C-134.1448255 400.26973253 -136.89982225 399.98989516 -140 398 C-138.75347656 397.5875 -137.50695312 397.175 -136.22265625 396.75 C-108.17170956 387.30908419 -83.53973939 373.45957547 -62 353 C-61.47825195 352.51080078 -60.95650391 352.02160156 -60.41894531 351.51757812 C-47.51140852 339.34740206 -36.81604952 325.86595148 -28 310.46484375 C-27.6810527 309.94393661 -27.36210541 309.42302948 -27.03349304 308.88633728 C-25.93634293 307.02460613 -25.93634293 307.02460613 -25.33633423 304.93786621 C-24.23881178 302.21473942 -23.30938321 300.84981391 -21 299 C-15.08546151 297.82008311 -9.21666261 298.09628716 -3.2109375 298.25390625 C-1.40543834 298.27188832 0.40010128 298.28615008 2.20565796 298.29690552 C6.03231079 298.32677913 9.85753476 298.38080242 13.68359375 298.45443726 C19.61961865 298.56808336 25.55530328 298.62651355 31.4921875 298.6730957 C37.33931938 298.72104843 43.18633507 298.77089864 49.03326416 298.83970642 C62.17205945 298.99405267 75.29791073 299.044877 88.43572998 298.74459839 C90.90453761 298.68962565 93.37313724 298.6531126 95.84228516 298.61743164 C122.22063637 298.07965088 144.58035635 287.9758695 163.3125 269.75 C180.21167179 251.79462998 187.5544744 227.9849494 187.21484375 203.7734375 C186.53397952 182.82311839 177.92427807 162.57287201 164 147 C162.89205078 145.75089844 162.89205078 145.75089844 161.76171875 144.4765625 C145.68580521 127.37452682 122.83099567 118.05395501 99.58457756 116.87779045 C96.98927859 116.7998524 94.39468918 116.7463245 91.79858398 116.70288086 C90.33357704 116.67340111 90.33357704 116.67340111 88.838974 116.64332581 C85.64140936 116.57994142 82.44376906 116.5223483 79.24609375 116.46484375 C77.01692521 116.42179127 74.78776368 116.37837457 72.55860901 116.33460999 C66.71441009 116.2208448 60.87012958 116.11200467 55.02581787 116.00421143 C49.05296171 115.89316838 43.08019655 115.77743801 37.10742188 115.66210938 C25.40503195 115.43683468 13.70255041 115.21676612 2 115 C1.43370744 102.67066624 0.87666336 90.34949205 0.68359375 78.0078125 C0.66281265 76.80905487 0.64203156 75.61029724 0.62062073 74.37521362 C0.57802992 71.87353971 0.53692344 69.37184008 0.49731445 66.87011719 C0.43811208 63.16332356 0.37272599 59.45667657 0.30664062 55.75 C-0.00926314 37.16532178 -0.05058043 18.58669686 0 0 Z " fill="#F9B92D" transform="translate(410,69)"/>
<path d="M0 0 C39.27 0 78.54 0 119 0 C119 91.41 119 182.82 119 277 C79.73 277 40.46 277 0 277 C0 185.59 0 94.18 0 0 Z " fill="#EF6C39" transform="translate(282,0)"/>
<path d="M0 0 C0.33 0 0.66 0 1 0 C0.8101226 44.14649596 -28.97397961 88.08692005 -59 118 C-63.45901115 122.25942935 -68.15441932 126.18981082 -73 130 C-73.90830566 130.72002197 -73.90830566 130.72002197 -74.83496094 131.45458984 C-106.8423878 156.42238222 -145.10957107 168.14418367 -185 172 C-185.88993652 172.09716309 -186.77987305 172.19432617 -187.69677734 172.29443359 C-193.58984424 172.88016253 -199.44348218 173.06666948 -205.36279297 173.04956055 C-206.18316575 173.04821798 -207.00353853 173.04687542 -207.8487711 173.04549217 C-218.79494603 173.01157958 -229.73921023 172.82197645 -240.68359375 172.6328125 C-242.38759685 172.60345926 -242.38759685 172.60345926 -244.12602425 172.57351303 C-250.10888023 172.46978827 -256.09168431 172.3634622 -262.07446289 172.25537109 C-267.00993591 172.16674823 -271.94545676 172.08371212 -276.88110352 172.00537109 C-282.88130995 171.91010807 -288.88128446 171.80552407 -294.88121223 171.6941185 C-297.15816737 171.65339032 -299.4351837 171.61594485 -301.71224785 171.58185196 C-304.8779824 171.53376183 -308.04327309 171.47368453 -311.20874023 171.41064453 C-312.14633682 171.39913361 -313.08393341 171.38762268 -314.04994202 171.37576294 C-314.91146881 171.3561853 -315.77299561 171.33660767 -316.66062927 171.31643677 C-317.40657065 171.30353167 -318.15251204 171.29062656 -318.9210577 171.2773304 C-321.28377927 170.96214391 -322.93786013 170.16923229 -325 169 C-323.13021484 168.38125 -323.13021484 168.38125 -321.22265625 167.75 C-293.17170956 158.30908419 -268.53973939 144.45957547 -247 124 C-246.47825195 123.51080078 -245.95650391 123.02160156 -245.41894531 122.51757812 C-232.51140852 110.34740206 -221.81604952 96.86595148 -213 81.46484375 C-212.6810527 80.94393661 -212.36210541 80.42302948 -212.03349304 79.88633728 C-210.93634293 78.02460613 -210.93634293 78.02460613 -210.33633423 75.93786621 C-209.23881178 73.21473942 -208.30938321 71.84981391 -206 70 C-200.08546151 68.82008311 -194.21666261 69.09628716 -188.2109375 69.25390625 C-186.40543834 69.27188832 -184.59989872 69.28615008 -182.79434204 69.29690552 C-178.96768921 69.32677913 -175.14246524 69.38080242 -171.31640625 69.45443726 C-165.38038135 69.56808336 -159.44469672 69.62651355 -153.5078125 69.6730957 C-147.66068062 69.72104843 -141.81366493 69.77089864 -135.96673584 69.83970642 C-122.82794055 69.99405267 -109.70208927 70.044877 -96.56427002 69.74459839 C-94.09546239 69.68962565 -91.62686276 69.6531126 -89.15771484 69.61743164 C-62.77936363 69.07965088 -40.41964365 58.9758695 -21.6875 40.75 C-11.02049693 29.41630924 -4.04152962 14.91966542 0 0 Z " fill="#F69B30" transform="translate(595,298)"/>
<path d="M0 0 C37.64836321 5.2368358 73.96061633 14.89549637 105 38 C106.01191406 38.73089844 107.02382813 39.46179688 108.06640625 40.21484375 C149.90503232 70.97891228 177.67243403 117.84029874 186 169 C187.20117423 176.99681333 188.12594873 184.89729848 188 193 C187.34 192.67 186.68 192.34 186 192 C185.39043848 189.85144654 184.8648116 187.67897495 184.375 185.5 C178.84653173 163.18877818 165.13439656 143.39792396 145.54638672 131.14526367 C128.68164835 121.09716583 111.32498098 117.02963873 91.79858398 116.70288086 C90.33357704 116.67340111 90.33357704 116.67340111 88.838974 116.64332581 C85.64140936 116.57994142 82.44376906 116.5223483 79.24609375 116.46484375 C77.01692521 116.42179127 74.78776368 116.37837457 72.55860901 116.33460999 C66.71441009 116.2208448 60.87012958 116.11200467 55.02581787 116.00421143 C49.05296171 115.89316838 43.08019655 115.77743801 37.10742188 115.66210938 C25.40503195 115.43683468 13.70255041 115.21676612 2 115 C1.43370694 102.67065535 0.87690837 90.34949516 0.68359375 78.0078125 C0.66276733 76.81834518 0.64194092 75.62887787 0.6204834 74.40336609 C0.5559972 70.64395917 0.49638317 66.8844985 0.4375 63.125 C0.41632111 61.83870697 0.39514221 60.55241394 0.37332153 59.22714233 C0.04916869 39.48358031 -0.1497128 19.74596697 0 0 Z " fill="#E3E4E5" transform="translate(410,69)"/>
<path d="M0 0 C9.4512515 7.74102504 15.50695345 19.14480677 17.35546875 31.16015625 C18.44996526 44.50969701 16.46023679 57.08273181 8.36328125 68.1171875 C-2.12549172 80.43303706 -14.25515191 87.22543076 -30.38671875 89.3046875 C-46.09777142 90.48918571 -61.40872454 87.93658109 -74.14453125 78.1953125 C-83.96505928 69.69395988 -91.44930206 59.48711036 -93.38671875 46.3046875 C-94.33719204 30.64015654 -91.65751094 17.80223144 -81.76171875 5.2421875 C-60.76725164 -17.36723862 -23.95185092 -17.01326235 0 0 Z M-64.38671875 16.3046875 C-71.5140927 25.23208702 -72.30667248 35.19537283 -71.38671875 46.3046875 C-69.56574561 54.43909445 -64.99347619 60.93952825 -58.28515625 65.83984375 C-48.8643369 71.54892686 -39.10216428 72.10814701 -28.38671875 70.3046875 C-19.63671251 67.95266633 -13.17529962 63.73182573 -8.57421875 55.8671875 C-3.98579247 46.79598949 -2.92417982 37.83440525 -5.63671875 27.9921875 C-8.54357846 19.4993347 -13.95005855 13.2756829 -21.82421875 8.97265625 C-36.10461409 2.95873976 -53.22646745 5.27125724 -64.38671875 16.3046875 Z " fill="#000000" transform="translate(217.38671875,602.6953125)"/>
<path d="M0 0 C6.93 0 13.86 0 21 0 C21 34.32 21 68.64 21 104 C14.07 104 7.14 104 0 104 C-0.33 100.7 -0.66 97.4 -1 94 C-1.94875 94.9075 -2.8975 95.815 -3.875 96.75 C-11.63243378 103.40597259 -21.22696584 105.33913294 -31.21875 105.21875 C-42.56803171 104.32610987 -52.34726051 100.55945792 -60.17578125 92.26953125 C-68.23808963 82.2391219 -69.94267916 70.52416592 -69 58 C-67.44507872 48.21314253 -63.43572508 39.48043768 -55.6875 33.125 C-44.34624662 25.0159082 -31.64760851 23.33807169 -18.046875 25.4609375 C-11.78813078 27.13387228 -5.62007851 30.37992149 -1 35 C-0.67 23.45 -0.34 11.9 0 0 Z M-43 50 C-47.58494434 56.48216269 -47.69687666 63.25471369 -47 71 C-45.2945643 77.18477285 -41.31121005 81.53280675 -36 85 C-29.40975332 88.26715115 -21.34953924 88.04967204 -14.296875 86.34765625 C-8.03782692 83.86745523 -3.77678219 79.68789155 -0.86328125 73.640625 C1.11249387 67.59707758 1.05906057 60.46444179 -1.5625 54.625 C-5.10418077 48.64763701 -10.31117522 44.60230744 -16.90234375 42.46875 C-26.72813543 40.27304236 -35.92646602 42.92646602 -43 50 Z " fill="#000000" transform="translate(313,587)"/>
<path d="M0 0 C0.33 -2.97 0.66 -5.94 1 -9 C8.26 -9 15.52 -9 23 -9 C23 17.07 23 43.14 23 70 C15.74 70 8.48 70 1 70 C0.505 65.545 0.505 65.545 0 61 C-1.010625 61.928125 -2.02125 62.85625 -3.0625 63.8125 C-12.48324501 71.88198664 -24.17926513 71.77241007 -36 71 C-45.23847665 69.57311486 -53.89745998 64.96383294 -59.875 57.75 C-67.73164166 46.78034937 -69.2382689 34.56447134 -67.69140625 21.3671875 C-65.84398927 11.98296319 -61.17047759 4.32826815 -54 -2 C-36.84212986 -13.22320934 -16.10788028 -12.60616718 0 0 Z M-40.6875 15.78515625 C-45.67698521 22.46142766 -45.66704872 28.95729832 -45 37 C-43.33846303 43.20574048 -39.33911443 47.56851842 -34 51 C-26.36218511 54.11170236 -18.71993892 53.84735506 -11.0703125 50.96875 C-5.66618578 48.44002655 -2.11250104 44.74375231 0.3046875 39.37109375 C2.10697179 33.22510183 2.04548575 26.51837039 -0.5625 20.625 C-3.89073247 14.95992346 -8.75614409 10.9998437 -15 9 C-24.53920357 7.89349898 -33.7655836 8.46266599 -40.6875 15.78515625 Z " fill="#F7941D" transform="translate(571,621)"/>
<path d="M0 0 C6.53644477 5.06645828 11.28821416 12.54538154 12.92578125 20.68359375 C13.56114671 26.22481384 13.51772293 31.34707705 12.1640625 36.76171875 C-8.9559375 36.76171875 -30.0759375 36.76171875 -51.8359375 36.76171875 C-48.6593205 46.61774697 -48.6593205 46.61774697 -41.12890625 52.3671875 C-34.70570435 55.0873335 -26.9473292 54.79417586 -20.22265625 53.10546875 C-15.10353989 50.868868 -13.14268302 47.74428907 -10.8359375 42.76171875 C-10.3409375 41.77171875 -10.3409375 41.77171875 -9.8359375 40.76171875 C-2.5759375 40.76171875 4.6840625 40.76171875 12.1640625 40.76171875 C10.97467524 50.27681681 8.41690606 55.49789931 1.1640625 61.76171875 C-9.94394578 70.26628759 -21.9400215 72.87779345 -35.8359375 71.76171875 C-48.75555711 69.78520978 -58.59420526 65.40796246 -67.109375 55.23046875 C-73.64366142 45.88732618 -75.02175907 33.60300084 -73.2109375 22.51171875 C-70.66836405 12.08373168 -65.35034507 3.95019258 -56.34375 -1.81640625 C-39.09166484 -11.59796232 -16.54189852 -11.15698262 0 0 Z M-49.7421875 16.6875 C-51.33036349 19.41728585 -51.33036349 19.41728585 -51.8359375 25.76171875 C-37.6459375 25.76171875 -23.4559375 25.76171875 -8.8359375 25.76171875 C-9.72915791 17.40392767 -9.72915791 17.40392767 -14.8359375 11.76171875 C-26.45680035 4.10953503 -40.77081676 6.39534412 -49.7421875 16.6875 Z " fill="#000000" transform="translate(420.8359375,620.23828125)"/>
<path d="M0 0 C0 6.6 0 13.2 0 20 C-8.5 20.75 -8.5 20.75 -11.12695312 20.95605469 C-16.67527092 21.51189251 -21.3296325 22.87174168 -26 26 C-29.26338234 30.21081592 -30.10007109 34.26067697 -30.20532227 39.49316406 C-30.22526749 40.37377502 -30.24521271 41.25438599 -30.26576233 42.16168213 C-30.29083107 43.57438385 -30.29083107 43.57438385 -30.31640625 45.015625 C-30.33718735 45.98659119 -30.35796844 46.95755737 -30.37937927 47.95794678 C-30.44468862 51.05522685 -30.50367323 54.15259068 -30.5625 57.25 C-30.60570292 59.35157111 -30.64931778 61.4531338 -30.69335938 63.5546875 C-30.80112506 68.70304045 -30.90033713 73.85145829 -31 79 C-37.93 79 -44.86 79 -52 79 C-52 53.26 -52 27.52 -52 1 C-45.07 1 -38.14 1 -31 1 C-30.67 3.97 -30.34 6.94 -30 10 C-29.071875 9.0925 -28.14375 8.185 -27.1875 7.25 C-19.03400388 0.34081252 -10.34955644 -0.48703795 0 0 Z " fill="#000000" transform="translate(499,612)"/>
<path d="M0 0 C0.66 0.33 1.32 0.66 2 1 C-10.86164623 15.43082312 -10.86164623 15.43082312 -14 17 C-12.70396588 14.17131143 -11.30810402 12.0298979 -9.1796875 9.765625 C-8.64472656 9.19199219 -8.10976562 8.61835938 -7.55859375 8.02734375 C-7.00300781 7.44082031 -6.44742188 6.85429687 -5.875 6.25 C-5.31167969 5.64800781 -4.74835938 5.04601562 -4.16796875 4.42578125 C-2.78275854 2.94665849 -1.3919271 1.47280359 0 0 Z " fill="#EA443A" transform="translate(142,207)"/>
<path d="M0 0 C0.66 0.33 1.32 0.66 2 1 C-1.96 3.64 -5.92 6.28 -10 9 C-10.66 8.67 -11.32 8.34 -12 8 C-8.20182235 4.77730382 -4.42608146 2.25479622 0 0 Z " fill="#FDC611" transform="translate(315,430)"/>
<path d="M0 0 C2.77398263 3.46747828 4.95912413 7.06402511 7 11 C6.67 11.66 6.34 12.32 6 13 C4.80008401 11.4050992 3.61538682 9.79873853 2.4375 8.1875 C1.44556641 6.84751953 1.44556641 6.84751953 0.43359375 5.48046875 C-0.03949219 4.66191406 -0.51257813 3.84335937 -1 3 C-0.67 2.01 -0.34 1.02 0 0 Z " fill="#FEE72D" transform="translate(31,369)"/>
</svg>
