<svg width="12" height="19" viewBox="0 0 12 19" fill="none" xmlns="http://www.w3.org/2000/svg">
<path d="M2.34748 6.26L5.01831 4.32C5.31813 4.10059 5.68281 3.98793 6.05415 4C6.50707 4.01129 6.94522 4.16342 7.30769 4.43524C7.67015 4.70705 7.93893 5.08504 8.07665 5.51667C8.23165 6.0025 8.37331 6.33083 8.50165 6.50167C8.88941 7.019 9.39241 7.43884 9.97073 7.72786C10.5491 8.01688 11.1868 8.16712 11.8333 8.16667V9.83333C10.9727 9.83427 10.1226 9.6444 9.34423 9.27739C8.56583 8.91038 7.87847 8.37535 7.33165 7.71083L6.75081 11.0067L8.46831 12.4483L10.3208 17.5383L8.75415 18.1083L7.05415 13.4383L4.22915 11.0675C3.99731 10.8803 3.81991 10.6344 3.71541 10.3553C3.61091 10.0762 3.58313 9.77427 3.63498 9.48083L4.05915 7.07667L3.49498 7.48667L1.72248 9.92667L0.374146 8.94667L2.33331 6.25L2.34748 6.26ZM7.24998 3.58333C6.80795 3.58333 6.38403 3.40774 6.07147 3.09518C5.75891 2.78262 5.58331 2.35869 5.58331 1.91667C5.58331 1.47464 5.75891 1.05072 6.07147 0.738155C6.38403 0.425595 6.80795 0.25 7.24998 0.25C7.69201 0.25 8.11593 0.425595 8.42849 0.738155C8.74105 1.05072 8.91665 1.47464 8.91665 1.91667C8.91665 2.35869 8.74105 2.78262 8.42849 3.09518C8.11593 3.40774 7.69201 3.58333 7.24998 3.58333ZM4.77331 14.5675L2.09498 17.7592L0.818312 16.6883L3.29831 13.7333L3.91998 11.9167L5.41248 13.1667L4.77331 14.5675Z" fill="#232B2F"/>
</svg>
