<svg width="20" height="20" viewBox="0 0 20 20" fill="none" xmlns="http://www.w3.org/2000/svg">
<path d="M15.2239 5.66711L5.03119 15.8598C4.81509 16.0759 4.46511 16.0759 4.249 15.8598C4.0329 15.6437 4.0329 15.2938 4.249 15.0777L14.4417 4.88492C14.6578 4.66882 15.0078 4.66882 15.2239 4.88492C15.44 5.10103 15.44 5.45101 15.2237 5.66729L15.2239 5.66711Z" fill="white"/>
<path d="M15.3859 11.6061C15.2704 11.7216 15.1052 11.7849 14.9306 11.7645C14.627 11.729 14.4098 11.4543 14.4452 11.1507L14.6997 8.9717L14.91 5.27283L8.8924 5.71247C8.58753 5.73466 8.3225 5.50565 8.30029 5.20112C8.2781 4.89625 8.50784 4.63122 8.81164 4.60901L15.4568 4.12387C15.6156 4.11204 15.7717 4.16952 15.8854 4.28139C15.9987 4.39327 16.0588 4.54825 16.0497 4.70687L15.801 9.06765L15.5441 11.2792C15.5289 11.408 15.4705 11.5214 15.3859 11.6059L15.3859 11.6061Z" fill="white"/>
</svg>
