<svg width="20" height="20" viewBox="0 0 20 20" fill="none" xmlns="http://www.w3.org/2000/svg">
<path d="M9.10268 1.11504C8.61649 1.22979 8.08882 1.50251 7.63709 1.85403C7.26902 2.13364 6.72729 2.82978 6.56734 3.21725C6.48402 3.4108 6.44218 3.44675 6.31739 3.4108C5.60902 3.20272 5.33095 3.15261 4.84512 3.15261C3.76868 3.15261 2.92814 3.51865 2.12943 4.33644C0.622354 5.87905 0.622354 8.29683 2.13646 9.86777C2.49082 10.2338 2.76854 10.4488 3.16438 10.6496L3.69908 10.9223V12.9958V19L10.0054 18.9855L16.3048 18.964L16.3396 12.9672L16.3744 10.9082L16.8813 10.65C18.1803 9.97562 18.9857 8.64835 18.9997 7.13442C19.0205 5.32636 17.84 3.71221 16.1659 3.2601C15.5757 3.10213 14.6448 3.11666 14.1031 3.29605C13.8668 3.37485 13.6446 3.43949 13.6169 3.43949C13.5891 3.43949 13.471 3.24594 13.3462 3.00917C13.2144 2.74372 12.9296 2.3922 12.6378 2.09806C11.6725 1.15789 10.3668 0.79221 9.10268 1.11504Z" fill="white"/>
<path d="M3 16L17 16" stroke="#83EA00"/>
</svg>
