<svg width="20" height="20" viewBox="0 0 20 20" fill="none" xmlns="http://www.w3.org/2000/svg">
<g clip-path="url(#clip0_4_6272)">
<path fill-rule="evenodd" clip-rule="evenodd" d="M7.90049 1.1H4.00049C2.39886 1.1 1.10049 2.39837 1.10049 4V7.9H7.90049V1.1ZM4.00049 0C1.79135 0 0.000488281 1.79086 0.000488281 4V8C0.000488281 8.55229 0.448204 9 1.00049 9H8.00049C8.55277 9 9.00049 8.55229 9.00049 8V1C9.00049 0.447715 8.55277 0 8.00049 0H4.00049Z" fill="#898989"/>
<path fill-rule="evenodd" clip-rule="evenodd" d="M12.1005 1.1V7.9H18.9005V4C18.9005 2.39837 17.6021 1.1 16.0005 1.1H12.1005ZM12.0005 0C11.4482 0 11.0005 0.447715 11.0005 1V8C11.0005 8.55229 11.4482 9 12.0005 9H19.0005C19.5528 9 20.0005 8.55229 20.0005 8V4C20.0005 1.79086 18.2096 0 16.0005 0H12.0005Z" fill="#898989"/>
<path fill-rule="evenodd" clip-rule="evenodd" d="M1.10049 12.1V16C1.10049 17.6016 2.39886 18.9 4.00049 18.9H7.90049V12.1H1.10049ZM1.00049 11C0.448204 11 0.000488281 11.4477 0.000488281 12V16C0.000488281 18.2091 1.79135 20 4.00049 20H8.00049C8.55277 20 9.00049 19.5523 9.00049 19V12C9.00049 11.4477 8.55277 11 8.00049 11H1.00049Z" fill="#898989"/>
<path fill-rule="evenodd" clip-rule="evenodd" d="M12.1005 12.1V18.9H16.0005C17.6021 18.9 18.9005 17.6016 18.9005 16V12.1H12.1005ZM12.0005 11C11.4482 11 11.0005 11.4477 11.0005 12V19C11.0005 19.5523 11.4482 20 12.0005 20H16.0005C18.2096 20 20.0005 18.2091 20.0005 16V12C20.0005 11.4477 19.5528 11 19.0005 11H12.0005Z" fill="#898989"/>
</g>
<defs>
<clipPath id="clip0_4_6272">
<rect width="20" height="20" fill="white"/>
</clipPath>
</defs>
</svg>
